<?xml version="1.0" standalone="no"?>
<!DOCTYPE svg PUBLIC "-//W3C//DTD SVG 20010904//EN"
 "http://www.w3.org/TR/2001/REC-SVG-20010904/DTD/svg10.dtd">
<svg version="1.0" xmlns="http://www.w3.org/2000/svg"
 width="2000.000000pt" height="2000.000000pt" viewBox="0 0 2000.000000 2000.000000"
 preserveAspectRatio="xMidYMid meet">
<metadata>
Created by potrace 1.15, written by Peter Selinger 2001-2017
</metadata>
<g transform="translate(0.000000,2000.000000) scale(0.100000,-0.100000)"
fill="#000000" stroke="none">
<path d="M9685 19914 c-1021 -39 -1960 -209 -2870 -518 -1793 -608 -3373
-1717 -4566 -3206 -626 -781 -1149 -1693 -1514 -2640 -313 -812 -519 -1689
-605 -2574 -35 -368 -44 -558 -44 -976 0 -777 71 -1433 234 -2170 361 -1625
1121 -3112 2249 -4400 164 -187 636 -662 816 -822 695 -614 1376 -1076 2175
-1477 1218 -610 2430 -935 3850 -1033 384 -26 1072 -14 1520 28 1343 124 2659
527 3843 1178 1440 791 2674 1942 3565 3323 798 1237 1308 2629 1496 4083 59
456 80 785 80 1285 0 626 -39 1102 -139 1693 -286 1683 -1021 3287 -2114 4612
-229 277 -356 416 -645 706 -324 324 -554 530 -851 766 -1512 1198 -3334 1930
-5235 2102 -360 33 -943 52 -1245 40z"/>
</g>
</svg>
